# xmcd CD database file
#
# Track frame offsets:
#	150
#	16735
#	42415
#	52087
#	70356
#	101912
#	124748
#	152851
#
# Disc length: 2362 seconds
#
# Revision: 0
# Processed by: cddbd v1.5.1PL0 Copyright (c) Steve Scherf et al.
# Submitted via: CDex 1.51
#
DISCID=6e093808
DTITLE=Chick Corea - Secret agent
DYEAR=1978
DGENRE=Jazz
TTITLE0=The golden dawn
TTITLE1=Slinky
TTITLE2=Mirage
TTITLE3=Drifting
TTITLE4=Glebe St. blues
TTITLE5=Fickle funk
TTITLE6=Hot news blues
TTITLE7=Central Park
EXTD=YEAR: 1978
EXTT0=
EXTT1=
EXTT2=
EXTT3=
EXTT4=
EXTT5=
EXTT6=
EXTT7=
PLAYORDER=
